<svg width="12" height="12" viewBox="0 0 12 12" fill="none" xmlns="http://www.w3.org/2000/svg">
<path d="M0.545469 5.99996C0.545469 6.99347 0.811089 7.92494 1.27519 8.72723C1.88847 9.7874 1.15939 9.96638 0.765595 10.6212C0.701444 10.7279 0.669369 10.7812 0.68584 10.9593C0.696449 11.074 0.813183 11.2804 0.906009 11.3486C1.05013 11.4545 1.17242 11.4545 1.417 11.4545C2.7975 11.4545 5.32774 11.4545 6.00001 11.4545C9.01248 11.4545 11.4546 9.01242 11.4546 5.99996C11.4546 2.98749 9.01248 0.54541 6.00001 0.54541C2.98755 0.54541 0.545469 2.98749 0.545469 5.99996Z" stroke="#949495" stroke-width="1.09091" stroke-linecap="round" stroke-linejoin="round"/>
<path d="M4.79233 4.36377H5.72008L4.98428 7.6365H3.27274L4.79233 4.36377ZM7.79953 4.36377H8.72728L7.99148 7.6365H6.27993L7.79953 4.36377Z" fill="#949495"/>
</svg>
