<svg width="16" height="16" viewBox="0 0 16 16" fill="none" xmlns="http://www.w3.org/2000/svg">
<g clip-path="url(#clip0_101_29665)">
<path d="M5.03703 1.33301H4.88888C3.64432 1.33301 3.02204 1.33301 2.54668 1.57522C2.12854 1.78827 1.78859 2.12822 1.57554 2.54636C1.33333 3.02172 1.33333 3.644 1.33333 4.88856V5.03671M5.03703 14.6663H4.88888C3.64432 14.6663 3.02204 14.6663 2.54668 14.4241C2.12854 14.2111 1.78859 13.8711 1.57554 13.453C1.33333 12.9776 1.33333 12.3553 1.33333 11.1108V10.9626M14.6667 5.03671V4.88856C14.6667 3.644 14.6667 3.02172 14.4245 2.54636C14.2114 2.12822 13.8714 1.78827 13.4533 1.57522C12.9779 1.33301 12.3557 1.33301 11.1111 1.33301H10.963M14.6667 10.9626V11.1108C14.6667 12.3553 14.6667 12.9776 14.4245 13.453C14.2114 13.8711 13.8714 14.2111 13.4533 14.4241C12.9779 14.6663 12.3557 14.6663 11.1111 14.6663H10.963" stroke="#949495" stroke-width="1.33333" stroke-linecap="round" stroke-linejoin="round"/>
</g>
<defs>
<clipPath id="clip0_101_29665">
<rect width="16" height="16" fill="white"/>
</clipPath>
</defs>
</svg>
