<svg width="16" height="16" viewBox="0 0 16 16" fill="none" xmlns="http://www.w3.org/2000/svg">
<g clip-path="url(#clip0_96_10487)">
<path d="M13.9387 14.5215L13.6368 13.929L13.6368 13.929L13.9387 14.5215ZM14.5214 13.9388L15.1139 14.2407L15.1139 14.2407L14.5214 13.9388ZM9.4787 13.9388L8.88618 14.2407L9.4787 13.9388ZM10.0614 14.5215L10.3633 13.929L10.0614 14.5215ZM13.9387 9.47882L13.6368 10.0713L13.9387 9.47882ZM14.5214 10.0615L13.9289 10.3634L14.5214 10.0615ZM10.0614 9.47882L10.3633 10.0713L10.3633 10.0713L10.0614 9.47882ZM9.4787 10.0615L10.0712 10.3634L9.4787 10.0615ZM5.93869 14.5215L5.63679 13.929L5.93869 14.5215ZM6.52138 13.9388L5.92886 13.6369L6.52138 13.9388ZM1.4787 13.9388L2.07122 13.6369L1.4787 13.9388ZM2.06139 14.5215L2.36329 13.929L2.06139 14.5215ZM5.93869 9.47882L6.2406 8.8863L5.93869 9.47882ZM6.52138 10.0615L5.92886 10.3634L5.92886 10.3634L6.52138 10.0615ZM2.06139 9.47882L2.36329 10.0713L2.06139 9.47882ZM1.4787 10.0615L2.07122 10.3634L1.4787 10.0615ZM5.93874 6.52167L6.24064 7.11419L5.93874 6.52167ZM6.52142 5.93898L7.11394 6.24088L6.52142 5.93898ZM1.47874 5.93898L0.88622 6.24088L1.47874 5.93898ZM2.06143 6.52167L2.36333 5.92915L2.36333 5.92915L2.06143 6.52167ZM6.52142 2.06167L5.9289 2.36358L6.52142 2.06167ZM10.0614 6.52151L9.75948 7.11402L9.75948 7.11402L10.0614 6.52151ZM9.4787 5.93882L10.0712 5.63691L9.4787 5.93882ZM14.5214 5.93882L13.9289 5.63691L14.5214 5.93882ZM13.9387 6.52151L13.6368 5.92899L13.9387 6.52151ZM9.4787 2.06151L8.88618 1.75961L9.4787 2.06151ZM14.5214 2.06151L15.1139 1.75961L15.1139 1.75961L14.5214 2.06151ZM12.5334 0.668496H11.4667V1.9985H12.5334V0.668496ZM15.3317 4.5335V3.46683H14.0017V4.5335H15.3317ZM11.4667 7.33183H12.5334V6.00183H11.4667V7.33183ZM8.66837 3.46683V4.5335H9.99837V3.46683H8.66837ZM3.46675 1.99866H4.53341V0.668659H3.46675V1.99866ZM1.99841 4.53366V3.46699H0.668415V4.53366H1.99841ZM4.53341 6.00199H3.46675V7.33199H4.53341V6.00199ZM6.00175 3.46699V4.53366H7.33175V3.46699H6.00175ZM3.46671 9.9985H4.53337V8.6685H3.46671V9.9985ZM1.99837 12.5335V11.4668H0.668374V12.5335H1.99837ZM4.53337 14.0018H3.46671V15.3318H4.53337V14.0018ZM6.00171 11.4668V12.5335H7.33171V11.4668H6.00171ZM11.4667 9.9985H12.5334V8.6685H11.4667V9.9985ZM9.99837 12.5335V11.4668H8.66837V12.5335H9.99837ZM12.5334 14.0018H11.4667V15.3318H12.5334V14.0018ZM14.0017 11.4668V12.5335H15.3317V11.4668H14.0017ZM12.5334 15.3318C12.8958 15.3318 13.2076 15.3323 13.4633 15.3115C13.7267 15.2899 13.9886 15.2424 14.2406 15.114L13.6368 13.929C13.6036 13.9459 13.5362 13.9711 13.355 13.9859C13.166 14.0013 12.9177 14.0018 12.5334 14.0018V15.3318ZM14.0017 12.5335C14.0017 12.9178 14.0012 13.1661 13.9858 13.3551C13.9709 13.5363 13.9458 13.6037 13.9289 13.6369L15.1139 14.2407C15.2423 13.9887 15.2898 13.7268 15.3113 13.4634C15.3322 13.2077 15.3317 12.8959 15.3317 12.5335H14.0017ZM14.2406 15.114C14.6166 14.9224 14.9223 14.6167 15.1139 14.2407L13.9289 13.6369C13.8648 13.7627 13.7625 13.8649 13.6368 13.929L14.2406 15.114ZM8.66837 12.5335C8.66837 12.8959 8.66786 13.2077 8.68875 13.4634C8.71027 13.7268 8.75779 13.9887 8.88618 14.2407L10.0712 13.6369C10.0543 13.6037 10.0291 13.5363 10.0143 13.3551C9.99889 13.1661 9.99837 12.9178 9.99837 12.5335H8.66837ZM11.4667 14.0018C11.0824 14.0018 10.8341 14.0013 10.6451 13.9859C10.4639 13.9711 10.3965 13.9459 10.3633 13.929L9.75948 15.114C10.0115 15.2424 10.2734 15.2899 10.5368 15.3115C10.7925 15.3323 11.1043 15.3318 11.4667 15.3318V14.0018ZM8.88618 14.2407C9.07777 14.6167 9.38347 14.9224 9.75948 15.114L10.3633 13.929C10.2375 13.8649 10.1353 13.7627 10.0712 13.6369L8.88618 14.2407ZM12.5334 9.9985C12.9177 9.9985 13.166 9.99901 13.355 10.0145C13.5362 10.0293 13.6036 10.0544 13.6368 10.0713L14.2406 8.8863C13.9886 8.75791 13.7267 8.7104 13.4633 8.68887C13.2076 8.66798 12.8958 8.6685 12.5334 8.6685V9.9985ZM15.3317 11.4668C15.3317 11.1044 15.3322 10.7926 15.3113 10.5369C15.2898 10.2735 15.2423 10.0116 15.1139 9.75961L13.9289 10.3634C13.9458 10.3966 13.9709 10.464 13.9858 10.6453C14.0012 10.8342 14.0017 11.0825 14.0017 11.4668H15.3317ZM13.6368 10.0713C13.7625 10.1354 13.8648 10.2377 13.9289 10.3634L15.1139 9.75961C14.9223 9.38359 14.6166 9.07789 14.2406 8.8863L13.6368 10.0713ZM11.4667 8.6685C11.1043 8.6685 10.7925 8.66798 10.5368 8.68887C10.2734 8.7104 10.0115 8.75791 9.75948 8.8863L10.3633 10.0713C10.3965 10.0544 10.4639 10.0293 10.6451 10.0145C10.8341 9.99901 11.0824 9.9985 11.4667 9.9985V8.6685ZM9.99837 11.4668C9.99837 11.0825 9.99889 10.8342 10.0143 10.6453C10.0291 10.464 10.0543 10.3966 10.0712 10.3634L8.88618 9.75961C8.75779 10.0116 8.71027 10.2735 8.68875 10.5369C8.66786 10.7926 8.66837 11.1044 8.66837 11.4668H9.99837ZM9.75948 8.8863C9.38347 9.07789 9.07777 9.38359 8.88618 9.75961L10.0712 10.3634C10.1353 10.2377 10.2375 10.1354 10.3633 10.0713L9.75948 8.8863ZM4.53337 15.3318C4.89577 15.3318 5.20756 15.3323 5.46326 15.3115C5.72672 15.2899 5.98862 15.2424 6.2406 15.114L5.63679 13.929C5.60355 13.9459 5.53616 13.9711 5.35495 13.9859C5.16598 14.0013 4.91772 14.0018 4.53337 14.0018V15.3318ZM6.00171 12.5335C6.00171 12.9178 6.00119 13.1661 5.98575 13.3551C5.97094 13.5363 5.9458 13.6037 5.92886 13.6369L7.1139 14.2407C7.24229 13.9887 7.28981 13.7268 7.31133 13.4634C7.33222 13.2077 7.33171 12.8959 7.33171 12.5335H6.00171ZM6.2406 15.114C6.61661 14.9224 6.92232 14.6167 7.1139 14.2407L5.92886 13.6369C5.86479 13.7627 5.76255 13.8649 5.63679 13.929L6.2406 15.114ZM0.668374 12.5335C0.668374 12.8959 0.667857 13.2077 0.688748 13.4634C0.710274 13.7268 0.75779 13.9887 0.886179 14.2407L2.07122 13.6369C2.05428 13.6037 2.02914 13.5363 2.01433 13.3551C1.99889 13.1661 1.99837 12.9178 1.99837 12.5335H0.668374ZM3.46671 14.0018C3.08237 14.0018 2.8341 14.0013 2.64513 13.9859C2.46392 13.9711 2.39653 13.9459 2.36329 13.929L1.75948 15.114C2.01146 15.2424 2.27336 15.2899 2.53682 15.3115C2.79252 15.3323 3.10431 15.3318 3.46671 15.3318V14.0018ZM0.886179 14.2407C1.07777 14.6167 1.38347 14.9224 1.75948 15.114L2.36329 13.929C2.23754 13.8649 2.13529 13.7627 2.07122 13.6369L0.886179 14.2407ZM4.53337 9.9985C4.91771 9.9985 5.16598 9.99901 5.35495 10.0145C5.53616 10.0293 5.60355 10.0544 5.63679 10.0713L6.2406 8.8863C5.98862 8.75791 5.72672 8.7104 5.46326 8.68887C5.20756 8.66798 4.89577 8.6685 4.53337 8.6685V9.9985ZM7.33171 11.4668C7.33171 11.1044 7.33222 10.7926 7.31133 10.5369C7.28981 10.2735 7.24229 10.0116 7.1139 9.75961L5.92886 10.3634C5.9458 10.3966 5.97094 10.464 5.98575 10.6453C6.00119 10.8342 6.00171 11.0825 6.00171 11.4668H7.33171ZM5.63679 10.0713C5.76255 10.1354 5.86479 10.2377 5.92886 10.3634L7.1139 9.75961C6.92232 9.38359 6.61661 9.07789 6.2406 8.8863L5.63679 10.0713ZM3.46671 8.6685C3.10431 8.6685 2.79252 8.66798 2.53682 8.68887C2.27336 8.7104 2.01146 8.75791 1.75948 8.8863L2.36329 10.0713C2.39653 10.0544 2.46392 10.0293 2.64513 10.0145C2.8341 9.99901 3.08237 9.9985 3.46671 9.9985V8.6685ZM1.99837 11.4668C1.99837 11.0825 1.99889 10.8342 2.01433 10.6453C2.02914 10.464 2.05428 10.3966 2.07122 10.3634L0.886179 9.75961C0.75779 10.0116 0.710274 10.2735 0.688748 10.5369C0.667857 10.7926 0.668374 11.1044 0.668374 11.4668H1.99837ZM1.75948 8.8863C1.38347 9.07789 1.07777 9.38359 0.886179 9.75961L2.07122 10.3634C2.13529 10.2377 2.23754 10.1354 2.36329 10.0713L1.75948 8.8863ZM4.53341 7.33199C4.89581 7.33199 5.2076 7.33251 5.4633 7.31162C5.72676 7.29009 5.98866 7.24258 6.24064 7.11419L5.63683 5.92915C5.6036 5.94608 5.53621 5.97123 5.35499 5.98604C5.16602 6.00148 4.91776 6.00199 4.53341 6.00199V7.33199ZM6.00175 4.53366C6.00175 4.918 6.00123 5.16626 5.98579 5.35524C5.97099 5.53645 5.94584 5.60384 5.9289 5.63708L7.11394 6.24088C7.24233 5.9889 7.28985 5.727 7.31137 5.46354C7.33227 5.20784 7.33175 4.89605 7.33175 4.53366H6.00175ZM6.24064 7.11419C6.61665 6.9226 6.92236 6.61689 7.11394 6.24088L5.9289 5.63708C5.86483 5.76283 5.76259 5.86507 5.63683 5.92915L6.24064 7.11419ZM0.668415 4.53366C0.668415 4.89605 0.667897 5.20784 0.688789 5.46354C0.710314 5.727 0.75783 5.9889 0.88622 6.24088L2.07126 5.63708C2.05432 5.60384 2.02918 5.53645 2.01437 5.35524C1.99893 5.16626 1.99841 4.918 1.99841 4.53366H0.668415ZM3.46675 6.00199C3.08241 6.00199 2.83415 6.00148 2.64517 5.98604C2.46396 5.97123 2.39657 5.94608 2.36333 5.92915L1.75952 7.11419C2.0115 7.24258 2.2734 7.29009 2.53687 7.31162C2.79256 7.33251 3.10435 7.33199 3.46675 7.33199V6.00199ZM0.88622 6.24088C1.07781 6.61689 1.38351 6.9226 1.75952 7.11419L2.36333 5.92915C2.23758 5.86507 2.13533 5.76283 2.07126 5.63708L0.88622 6.24088ZM4.53341 1.99866C4.91776 1.99866 5.16602 1.99918 5.35499 2.01462C5.53621 2.02942 5.6036 2.05457 5.63683 2.0715L6.24064 0.886464C5.98866 0.758074 5.72676 0.710558 5.4633 0.689033C5.2076 0.668142 4.89581 0.668659 4.53341 0.668659V1.99866ZM7.33175 3.46699C7.33175 3.1046 7.33227 2.79281 7.31137 2.53711C7.28985 2.27365 7.24233 2.01175 7.11394 1.75977L5.9289 2.36358C5.94584 2.39681 5.97099 2.4642 5.98579 2.64541C6.00123 2.83439 6.00175 3.08265 6.00175 3.46699H7.33175ZM5.63683 2.0715C5.76259 2.13558 5.86483 2.23782 5.9289 2.36358L7.11394 1.75977C6.92236 1.38376 6.61665 1.07805 6.24064 0.886464L5.63683 2.0715ZM3.46675 0.668659C3.10435 0.668659 2.79256 0.668142 2.53687 0.689033C2.2734 0.710558 2.0115 0.758074 1.75952 0.886464L2.36333 2.0715C2.39657 2.05457 2.46396 2.02942 2.64517 2.01462C2.83414 1.99918 3.08241 1.99866 3.46675 1.99866V0.668659ZM1.99841 3.46699C1.99841 3.08265 1.99893 2.83439 2.01437 2.64541C2.02918 2.4642 2.05432 2.39681 2.07126 2.36358L0.88622 1.75977C0.75783 2.01175 0.710314 2.27365 0.688789 2.53711C0.667897 2.79281 0.668415 3.1046 0.668415 3.46699H1.99841ZM1.75952 0.886464C1.38351 1.07805 1.07781 1.38376 0.88622 1.75977L2.07126 2.36358C2.13533 2.23782 2.23758 2.13558 2.36333 2.0715L1.75952 0.886464ZM11.4667 6.00183C11.0824 6.00183 10.8341 6.00131 10.6451 5.98587C10.4639 5.97107 10.3965 5.94592 10.3633 5.92899L9.75948 7.11402C10.0115 7.24241 10.2734 7.28993 10.5368 7.31146C10.7925 7.33235 11.1043 7.33183 11.4667 7.33183V6.00183ZM8.66837 4.5335C8.66837 4.89589 8.66786 5.20768 8.68875 5.46338C8.71027 5.72684 8.75779 5.98874 8.88618 6.24072L10.0712 5.63691C10.0543 5.60368 10.0291 5.53629 10.0143 5.35507C9.99889 5.1661 9.99837 4.91784 9.99837 4.5335H8.66837ZM10.3633 5.92899C10.2375 5.86491 10.1353 5.76267 10.0712 5.63691L8.88618 6.24072C9.07777 6.61673 9.38347 6.92244 9.75948 7.11402L10.3633 5.92899ZM14.0017 4.5335C14.0017 4.91784 14.0012 5.1661 13.9858 5.35507C13.9709 5.53629 13.9458 5.60368 13.9289 5.63691L15.1139 6.24072C15.2423 5.98874 15.2898 5.72684 15.3113 5.46338C15.3322 5.20768 15.3317 4.89589 15.3317 4.5335H14.0017ZM12.5334 7.33183C12.8958 7.33183 13.2076 7.33235 13.4633 7.31146C13.7267 7.28993 13.9886 7.24241 14.2406 7.11402L13.6368 5.92899C13.6036 5.94592 13.5362 5.97107 13.355 5.98587C13.166 6.00131 12.9177 6.00183 12.5334 6.00183V7.33183ZM13.9289 5.63691C13.8648 5.76267 13.7625 5.86491 13.6368 5.92899L14.2406 7.11402C14.6166 6.92244 14.9223 6.61673 15.1139 6.24072L13.9289 5.63691ZM11.4667 0.668496C11.1043 0.668496 10.7925 0.667979 10.5368 0.68887C10.2734 0.710396 10.0115 0.757912 9.75948 0.886301L10.3633 2.07134C10.3965 2.05441 10.4639 2.02926 10.6451 2.01445C10.8341 1.99901 11.0824 1.9985 11.4667 1.9985V0.668496ZM9.99837 3.46683C9.99837 3.08249 9.99889 2.83423 10.0143 2.64525C10.0291 2.46404 10.0543 2.39665 10.0712 2.36341L8.88618 1.75961C8.75779 2.01158 8.71027 2.27349 8.68875 2.53695C8.66786 2.79264 8.66837 3.10443 8.66837 3.46683H9.99837ZM9.75948 0.886301C9.38347 1.07789 9.07777 1.38359 8.88618 1.75961L10.0712 2.36341C10.1353 2.23766 10.2375 2.13542 10.3633 2.07134L9.75948 0.886301ZM12.5334 1.9985C12.9177 1.9985 13.166 1.99901 13.355 2.01445C13.5362 2.02926 13.6036 2.05441 13.6368 2.07134L14.2406 0.886301C13.9886 0.757912 13.7267 0.710396 13.4633 0.68887C13.2076 0.667979 12.8958 0.668496 12.5334 0.668496V1.9985ZM15.3317 3.46683C15.3317 3.10444 15.3322 2.79264 15.3113 2.53695C15.2898 2.27349 15.2423 2.01158 15.1139 1.75961L13.9289 2.36341C13.9458 2.39665 13.9709 2.46404 13.9858 2.64525C14.0012 2.83423 14.0017 3.08249 14.0017 3.46683H15.3317ZM13.6368 2.07134C13.7625 2.13542 13.8648 2.23766 13.9289 2.36341L15.1139 1.75961C14.9223 1.38359 14.6166 1.07789 14.2406 0.886301L13.6368 2.07134Z" fill="#949495"/>
</g>
<defs>
<clipPath id="clip0_96_10487">
<rect width="16" height="16" fill="white"/>
</clipPath>
</defs>
</svg>
