<svg width="125" height="26" viewBox="0 0 125 26" fill="none" xmlns="http://www.w3.org/2000/svg">
<path d="M38.388 14.728C36.7453 16.8933 35.5787 17.3693 34.888 16.156L34.524 15.54V25.676C31.948 25.676 30.66 24.976 30.66 23.576V17.192L28.644 18.9C27.636 16.0253 27.692 14.168 28.812 13.328C28.8867 13.4213 29.456 12.824 30.52 11.536L33.264 7.364H27.888C27.888 4.93733 28.588 3.724 29.988 3.724H31.668L29.82 0.867999C31.948 -0.270668 33.404 -0.261334 34.188 0.896C35.028 2.10933 34.8787 3.052 33.74 3.724L35.924 3.584C37.3427 4.55467 37.8093 5.69333 37.324 7C37.156 7.74667 36.484 9.13733 35.308 11.172C36.316 12.2547 37.3427 13.44 38.388 14.728ZM49.336 22.456H50.12C50.4 22.456 50.596 22.1667 50.708 21.588C50.82 21.0093 50.8853 19.8613 50.904 18.144C52.976 19.1147 53.9187 20.3 53.732 21.7C53.7507 22.5773 53.5173 23.408 53.032 24.192C52.5467 24.976 51.5667 25.368 50.092 25.368H48.496C47.2267 25.368 46.3213 25.1253 45.78 24.64C45.2573 24.1547 44.996 23.2587 44.996 21.952V19.46C43.4467 22.1293 41.244 24.22 38.388 25.732L37.184 24.164C36.232 23.2307 36.2973 22.3907 37.38 21.644L39.34 20.272C40.348 19.3387 41.1227 18.4333 41.664 17.556C42.2053 16.6787 42.6253 15.6987 42.924 14.616C43.2413 13.5333 43.4373 12.5907 43.512 11.788C43.6053 10.9667 43.652 10.052 43.652 9.044V5.152C46.2467 5.152 47.544 5.852 47.544 7.252V9.128C47.544 11.3493 47.2733 13.4307 46.732 15.372H48.72V21.476C48.72 22.1293 48.9253 22.456 49.336 22.456ZM42.308 15.232C39.6947 15.232 38.388 14.532 38.388 13.132V2.408C38.388 1.008 39.088 0.307999 40.488 0.307999H52.92V15.232C50.176 15.232 48.804 14.532 48.804 13.132V3.78H43.008C42.5413 3.78 42.308 4.01333 42.308 4.48V15.232Z" fill="url(#paint0_linear_96_10667)"/>
<path d="M18.06 12.348H6.972L8.064 14.168C8.54933 14.9707 8.344 15.54 7.448 15.876H10.444V12.992C13.2067 12.992 14.588 13.692 14.588 15.092V15.876H16.548L18.06 12.348ZM6.104 7.504C5.63733 7.504 5.404 7.73733 5.404 8.204V9.212H7.448V7.504H6.104ZM11.284 3.36V4.368H13.412V3.36H11.284ZM11.284 9.212H13.412V7.504H11.284V9.212ZM19.544 7.504H17.276V9.212H18.844C19.3107 9.212 19.544 8.97867 19.544 8.512V7.504ZM25.088 15.876C25.088 18.1907 24.388 19.348 22.988 19.348H18.48C20.6827 20.5053 23.1747 21.4013 25.956 22.036C24.1827 24.2947 22.652 25.1533 21.364 24.612C19.4973 24.1267 17.2387 22.8573 14.588 20.804V25.732C11.8253 25.732 10.444 25.032 10.444 23.632V20.86C7.94267 22.932 5.04 24.472 1.736 25.48C0.0186666 23.3147 -0.168 22.036 1.176 21.644C2.688 21.3827 4.55467 20.6173 6.776 19.348H0C0 17.0333 0.7 15.876 2.1 15.876H4.48L4.172 15.372C3.48133 14.1773 3.78933 13.3373 5.096 12.852L6.384 12.348H1.512V6.468C1.512 5.068 2.212 4.368 3.612 4.368H7.448V3.36H0.168C0.168 1.12 0.868 0 2.268 0H25.004C25.004 2.24 24.304 3.36 22.904 3.36H17.276V4.368H23.66V10.248C23.66 11.648 22.96 12.348 21.56 12.348H18.284L20.3 12.964C21.644 13.356 21.924 14.1307 21.14 15.288L20.748 15.876H25.088Z" fill="url(#paint1_linear_96_10667)"/>
<path d="M113.019 10.5801C114.523 11.0601 115.121 11.6681 114.811 12.4041C114.705 12.7774 114.369 13.4921 113.803 14.5481V25.7001C112.235 25.7001 111.451 25.3001 111.451 24.5001V18.1481L110.779 18.9001C109.947 17.2254 109.793 16.0841 110.315 15.4761C110.486 15.3908 110.881 14.8308 111.499 13.7961C112.129 12.7508 112.635 11.6788 113.019 10.5801ZM124.955 13.0921C124.955 14.5641 124.555 15.3001 123.755 15.3001H120.619V16.6281H124.523C124.523 18.0361 124.123 18.7401 123.323 18.7401H120.619V20.1801H124.731C124.731 21.6201 124.331 22.3401 123.531 22.3401H120.619V25.7161C119.019 25.7161 118.219 25.3161 118.219 24.5161V15.3001H117.915C117.243 16.5054 116.566 17.4974 115.883 18.2761C114.71 17.1881 114.379 16.3401 114.891 15.7321C115.062 15.6468 115.441 15.0708 116.027 14.0041C116.625 12.9268 117.105 11.8068 117.467 10.6441C118.961 11.0388 119.563 11.6094 119.275 12.3561L118.987 13.0921H124.955Z" fill="#DBDBDC"/>
<path d="M98.9074 14.3081C98.9074 15.7374 98.5074 16.4521 97.7074 16.4521H97.4834V25.7161C96.0007 25.7161 95.2594 25.3161 95.2594 24.5161V16.4521H93.8514C93.8514 15.0228 94.2514 14.3081 95.0514 14.3081H95.2594V10.5161C96.742 10.5161 97.4834 10.9161 97.4834 11.7161V14.3081H98.9074ZM98.8594 16.5481C100.214 16.8148 100.785 17.3321 100.571 18.1001C100.433 19.1454 99.99 20.2068 99.2434 21.2841C98.0807 20.5374 97.686 19.8121 98.0594 19.1081C98.3367 18.9801 98.6034 18.1268 98.8594 16.5481ZM109.243 21.3161C107.921 21.6574 107.195 21.4281 107.067 20.6281C107.121 20.8414 107.041 20.4468 106.827 19.4441C106.774 21.0228 106.699 22.1908 106.603 22.9481C106.507 23.6948 106.363 24.2068 106.171 24.4841C105.979 24.7721 105.771 24.9801 105.547 25.1081C105.334 25.2468 105.046 25.3534 104.683 25.4281C104.321 25.5134 103.622 25.5454 102.587 25.5241C102.129 24.0414 102.299 23.3214 103.099 23.3641H103.611C103.857 23.3641 104.054 23.2628 104.203 23.0601C104.353 22.8574 104.465 22.2174 104.539 21.1401C104.614 20.0628 104.673 18.2494 104.715 15.7001H103.627C103.563 17.5134 103.281 19.2361 102.779 20.8681C102.182 22.7561 101.089 24.3774 99.4994 25.7321C98.326 24.6548 97.9794 23.8014 98.4594 23.1721C100.273 21.9454 101.265 19.4548 101.435 15.7001H99.2914C99.2914 14.1961 99.6914 13.4441 100.491 13.4441H101.467V10.5641C102.929 10.5641 103.659 10.9641 103.659 11.7641V13.4441H106.955L106.891 16.7881L108.075 16.5321C108.641 18.4628 109.03 20.0574 109.243 21.3161Z" fill="#DBDBDC"/>
<path d="M88.2834 20.3401H82.9394C82.6727 20.3401 82.5394 20.4734 82.5394 20.7401V21.1401H88.2834V20.3401ZM82.5394 23.7481H87.8834C88.15 23.7481 88.2834 23.6148 88.2834 23.3481V22.9321H82.5394V23.7481ZM80.1394 25.7001V19.5881C80.1394 18.7881 80.5394 18.3881 81.3394 18.3881H90.8274V24.5001C90.8274 25.3001 90.4274 25.7001 89.6274 25.7001H80.1394ZM87.4674 13.8921H83.3554L83.7714 15.5081L86.9554 15.4761L87.4674 13.8921ZM89.5314 15.5081H92.7954V16.4361C92.7954 17.2361 92.3954 17.6361 91.5954 17.6361H77.8354C77.8354 16.2174 78.2354 15.5081 79.0354 15.5081H81.3074L80.8274 14.1801C80.774 14.0201 80.8327 13.9241 81.0034 13.8921H78.7474C78.7474 12.4841 79.1474 11.7801 79.9474 11.7801H83.9794V10.5321C85.6754 10.5321 86.5234 10.9481 86.5234 11.7801H92.0594C92.0594 13.1881 91.6594 13.8921 90.8594 13.8921H89.9474C90.1714 13.9348 90.2354 14.0574 90.1394 14.2601L89.5314 15.5081Z" fill="#DBDBDC"/>
<path d="M74.2194 10.7561C75.702 11.3534 76.1767 11.9454 75.6434 12.5321C75.0887 13.4388 73.9207 14.4308 72.1394 15.5081C71.0407 14.4094 70.838 13.6628 71.5314 13.2681C71.5634 13.2894 71.926 13.0228 72.6194 12.4681C73.3127 11.9028 73.846 11.3321 74.2194 10.7561ZM74.4274 15.2361C75.878 15.8441 76.3314 16.4414 75.7874 17.0281C75.2007 17.9454 74.006 18.9534 72.2034 20.0521C71.1047 18.9534 70.902 18.2014 71.5954 17.7961C71.638 17.8174 72.022 17.5454 72.7474 16.9801C73.4727 16.4041 74.0327 15.8228 74.4274 15.2361ZM64.8274 13.8281V14.2601H67.7394C68.006 14.2601 68.1394 14.1161 68.1394 13.8281H64.8274ZM65.2274 12.2441C64.9607 12.2441 64.8274 12.3881 64.8274 12.6761H68.1394V12.2441H65.2274ZM71.1954 16.0041V16.5481C71.1954 17.3481 70.7954 17.7481 69.9954 17.7481H61.7554C61.7554 16.5854 62.1554 16.0041 62.9554 16.0041H65.4034V15.4921H62.7794V12.2121C62.7794 11.4121 63.1794 11.0121 63.9794 11.0121H70.2834V14.2921C70.2834 15.0921 69.8834 15.4921 69.0834 15.4921H67.4994V16.0041H71.1954ZM65.2114 19.6841C64.9447 19.6841 64.8114 19.8174 64.8114 20.0841V20.3721H67.6434C67.91 20.3721 68.0434 20.2388 68.0434 19.9721V19.6841H65.2114ZM70.1394 20.6281C70.1394 21.4281 69.7394 21.8281 68.9394 21.8281H67.4994V23.8121C67.4994 24.2494 67.446 24.5908 67.3394 24.8361C67.0834 25.4121 66.166 25.7001 64.5874 25.7001C64.4914 25.3374 64.2887 24.8788 63.9794 24.3241L63.1474 25.3481C62.0487 24.6121 61.7287 23.9188 62.1874 23.2681L63.0994 21.9561C64.3794 22.2974 64.838 22.8254 64.4754 23.5401L64.2194 23.9561L65.3074 23.9401C65.3714 23.8974 65.4034 23.8334 65.4034 23.7481V21.8281H62.8434V19.4441C62.8434 18.6441 63.2434 18.2441 64.0434 18.2441H70.1394V20.6281ZM74.7314 19.4921C76.2674 20.0254 76.806 20.6174 76.3474 21.2681C75.6434 22.9321 74.07 24.4201 71.6274 25.7321C71.4354 25.3588 71.1154 24.9214 70.6674 24.4201L69.2754 25.1401C68.23 23.5721 68.07 22.6121 68.7954 22.2601L69.4194 21.9561C69.91 22.5534 70.3047 23.0601 70.6034 23.4761C71.51 23.0281 72.3207 22.4628 73.0354 21.7801C73.7607 21.0974 74.326 20.3348 74.7314 19.4921Z" fill="#DBDBDC"/>
<defs>
<linearGradient id="paint0_linear_96_10667" x1="26.8776" y1="0" x2="26.8776" y2="25.732" gradientUnits="userSpaceOnUse">
<stop stop-color="#61BE74"/>
<stop offset="1" stop-color="#8ED401"/>
</linearGradient>
<linearGradient id="paint1_linear_96_10667" x1="26.8776" y1="0" x2="26.8776" y2="25.732" gradientUnits="userSpaceOnUse">
<stop stop-color="#61BE74"/>
<stop offset="1" stop-color="#8ED401"/>
</linearGradient>
</defs>
</svg>
