<svg width="16" height="16" viewBox="0 0 16 16" fill="none" xmlns="http://www.w3.org/2000/svg">
<path d="M14.6667 6.00028L10.6667 10.0003M10.6667 6.00028L14.6667 10.0003M6.42287 2.91073L4.31241 5.02119C4.19711 5.13649 4.13946 5.19414 4.07218 5.23537C4.01254 5.27192 3.94751 5.29886 3.87948 5.31519C3.80276 5.33361 3.72123 5.33361 3.55817 5.33361H2.39999C2.02663 5.33361 1.83994 5.33361 1.69733 5.40627C1.57189 5.47019 1.46991 5.57218 1.40599 5.69762C1.33333 5.84022 1.33333 6.02691 1.33333 6.40028V9.60028C1.33333 9.97365 1.33333 10.1603 1.40599 10.3029C1.46991 10.4284 1.57189 10.5304 1.69733 10.5943C1.83994 10.6669 2.02663 10.6669 2.39999 10.6669H3.55817C3.72123 10.6669 3.80276 10.6669 3.87948 10.6854C3.94751 10.7017 4.01254 10.7286 4.07218 10.7652C4.13946 10.8064 4.19711 10.8641 4.31241 10.9794L6.42287 13.0898C6.70846 13.3754 6.85125 13.5182 6.97384 13.5278C7.08021 13.5362 7.18417 13.4932 7.25346 13.412C7.33333 13.3185 7.33333 13.1166 7.33333 12.7127V3.28786C7.33333 2.88398 7.33333 2.68204 7.25346 2.58853C7.18417 2.5074 7.08021 2.46434 6.97384 2.47271C6.85125 2.48236 6.70846 2.62515 6.42287 2.91073Z" stroke="#949495" stroke-width="1.33333" stroke-linecap="round" stroke-linejoin="round"/>
</svg>
