<svg width="16" height="16" viewBox="0 0 16 16" fill="none" xmlns="http://www.w3.org/2000/svg">
<g clip-path="url(#clip0_101_29672)">
<path d="M12.2845 6.17068C13.2901 6.77406 13.7929 7.07575 13.9635 7.46589C14.1124 7.8064 14.1124 8.1936 13.9635 8.53411C13.7929 8.92425 13.2901 9.22594 12.2845 9.82932L6.84639 13.0922C5.26011 14.0439 4.46697 14.5198 3.81438 14.459C3.24534 14.4059 2.72617 14.112 2.38792 13.6513C2 13.123 2 12.1981 2 10.3482L2 5.65181C2 3.80191 2 2.87696 2.38792 2.34866C2.72617 1.888 3.24534 1.59406 3.81438 1.54101C4.46697 1.48018 5.26011 1.95607 6.84639 2.90783L12.2845 6.17068Z" stroke="#949495" stroke-width="1.33333" stroke-linecap="round" stroke-linejoin="round"/>
</g>
<defs>
<clipPath id="clip0_101_29672">
<rect width="16" height="16" fill="white"/>
</clipPath>
</defs>
</svg>
