<svg width="16" height="16" viewBox="0 0 16 16" fill="none" xmlns="http://www.w3.org/2000/svg">
<path d="M13.6818 2.88119C14.7212 4.32203 15.3333 6.08989 15.3333 8.00033C15.3333 9.91076 14.7212 11.6786 13.6818 13.1195M10.7466 5.0751C11.3265 5.90428 11.6667 6.91269 11.6667 8.00033C11.6667 9.08796 11.3265 10.0964 10.7466 10.9255M6.26516 3.14862L3.94366 5.4637C3.81683 5.59018 3.75341 5.65342 3.67941 5.69864C3.6138 5.73874 3.54226 5.76829 3.46744 5.7862C3.38304 5.80641 3.29336 5.80641 3.11399 5.80641H1.84C1.42929 5.80641 1.22394 5.80641 1.06707 5.88612C0.929088 5.95623 0.816902 6.06811 0.746595 6.20571C0.666667 6.36214 0.666667 6.56693 0.666667 6.9765V9.02415C0.666667 9.43372 0.666667 9.63851 0.746595 9.79494C0.816902 9.93255 0.929088 10.0444 1.06707 10.1145C1.22394 10.1942 1.42929 10.1942 1.84 10.1942H3.11399C3.29336 10.1942 3.38304 10.1942 3.46744 10.2144C3.54226 10.2324 3.6138 10.2619 3.67941 10.302C3.75341 10.3472 3.81683 10.4105 3.94366 10.537L6.26516 12.852C6.57931 13.1653 6.73638 13.3219 6.87123 13.3325C6.98824 13.3417 7.10259 13.2945 7.17882 13.2055C7.26667 13.1029 7.26667 12.8814 7.26667 12.4383V3.56231C7.26667 3.11927 7.26667 2.89775 7.17882 2.79517C7.10259 2.70617 6.98824 2.65894 6.87123 2.66812C6.73638 2.67871 6.57931 2.83534 6.26516 3.14862Z" stroke="#949495" stroke-width="1.33333" stroke-linecap="round" stroke-linejoin="round"/>
</svg>
