<svg width="16" height="16" viewBox="0 0 16 16" fill="none" xmlns="http://www.w3.org/2000/svg">
<g clip-path="url(#clip0_96_27145)">
<path d="M2.66666 14.5449C3.06838 14.6666 3.61097 14.6666 4.53331 14.6666H11.4666C12.389 14.6666 12.9316 14.6666 13.3333 14.5449M2.66666 14.5449C2.58053 14.5188 2.50087 14.4871 2.42533 14.4486C2.04901 14.2569 1.74305 13.9509 1.5513 13.5746C1.33331 13.1467 1.33331 12.5867 1.33331 11.4666V4.53325C1.33331 3.41315 1.33331 2.85309 1.5513 2.42527C1.74305 2.04895 2.04901 1.74299 2.42533 1.55124C2.85316 1.33325 3.41321 1.33325 4.53331 1.33325H11.4666C12.5868 1.33325 13.1468 1.33325 13.5746 1.55124C13.951 1.74299 14.2569 2.04895 14.4487 2.42527C14.6666 2.85309 14.6666 3.41315 14.6666 4.53325V11.4666C14.6666 12.5867 14.6666 13.1467 14.4487 13.5746C14.2569 13.9509 13.951 14.2569 13.5746 14.4486C13.4991 14.4871 13.4194 14.5188 13.3333 14.5449M2.66666 14.5449C2.66688 14.0053 2.67012 13.7198 2.71789 13.4797C2.9283 12.4218 3.75523 11.5949 4.81307 11.3845C5.07067 11.3333 5.38044 11.3333 5.99998 11.3333H9.99998C10.6195 11.3333 10.9293 11.3333 11.1869 11.3845C12.2447 11.5949 13.0717 12.4218 13.2821 13.4797C13.3298 13.7198 13.3331 14.0053 13.3333 14.5449M10.6666 6.33325C10.6666 7.80601 9.47274 8.99992 7.99998 8.99992C6.52722 8.99992 5.33331 7.80601 5.33331 6.33325C5.33331 4.86049 6.52722 3.66659 7.99998 3.66659C9.47274 3.66659 10.6666 4.86049 10.6666 6.33325Z" stroke="#949495" stroke-width="1.33333" stroke-linecap="round" stroke-linejoin="round"/>
</g>
<defs>
<clipPath id="clip0_96_27145">
<rect width="16" height="16" fill="white"/>
</clipPath>
</defs>
</svg>
