<svg width="16" height="16" viewBox="0 0 16 16" fill="none" xmlns="http://www.w3.org/2000/svg">
<g clip-path="url(#clip0_96_27140)">
<path d="M7.25924 1.77778H4.88887C3.64431 1.77778 3.02203 1.77778 2.54667 2.0321C2.12853 2.2558 1.78857 2.61276 1.57552 3.0518C1.33331 3.55093 1.33331 4.20432 1.33331 5.51111V11.2667C1.33331 12.5735 1.33331 13.2269 1.57552 13.726C1.78857 14.165 2.12853 14.522 2.54667 14.7457C3.02203 15 3.64431 15 4.88887 15H10.3704C11.6149 15 12.2372 15 12.7126 14.7457C13.1307 14.522 13.4706 14.165 13.6837 13.726C13.9259 13.2269 13.9259 12.5735 13.9259 11.2667V8.77778M8.74072 11.8889H4.29628M10.2222 8.77778H4.29628M14.0158 1.68342C14.8836 2.59464 14.8836 4.07203 14.0158 4.98325C13.1479 5.89447 11.7409 5.89447 10.8731 4.98325C10.0052 4.07203 10.0052 2.59464 10.8731 1.68342C11.7409 0.772194 13.1479 0.772194 14.0158 1.68342Z" stroke="#DBDBDC" stroke-width="1.33" stroke-linecap="round" stroke-linejoin="round"/>
</g>
<defs>
<clipPath id="clip0_96_27140">
<rect width="16" height="16" fill="white"/>
</clipPath>
</defs>
</svg>
