<svg width="16" height="16" viewBox="0 0 16 16" fill="none" xmlns="http://www.w3.org/2000/svg">
<g clip-path="url(#clip0_96_27143)">
<path d="M6.25 1L5.5 4.88889M10.5 1L9.75 4.88889M15 4.88889H1M4.6 15H11.4C12.6601 15 13.2902 15 13.7715 14.7457C14.1948 14.522 14.539 14.165 14.7548 13.726C15 13.2269 15 12.5735 15 11.2667V4.73333C15 3.42654 15 2.77315 14.7548 2.27402C14.539 1.83498 14.1948 1.47802 13.7715 1.25432C13.2902 1 12.6601 1 11.4 1H4.6C3.33988 1 2.70982 1 2.22852 1.25432C1.80516 1.47802 1.46095 1.83498 1.24524 2.27402C1 2.77315 1 3.42654 1 4.73333V11.2667C1 12.5735 1 13.2269 1.24524 13.726C1.46095 14.165 1.80516 14.522 2.22852 14.7457C2.70982 15 3.33988 15 4.6 15Z" stroke="#949495" stroke-width="1.33333" stroke-linecap="round" stroke-linejoin="round"/>
<path d="M7.29738 7.60704C7.40636 7.25436 7.46086 7.07802 7.51297 7.00283C7.74865 6.66279 8.25139 6.66279 8.48707 7.00283C8.53918 7.07802 8.59368 7.25436 8.70266 7.60704V7.60704C8.76203 7.79918 8.79172 7.89525 8.83152 7.97704C9.0016 8.32654 9.33224 8.57044 9.71638 8.62975C9.80627 8.64362 9.9087 8.64362 10.1136 8.64362V8.64362C10.4901 8.64362 10.6784 8.64362 10.7703 8.67451C11.1415 8.7993 11.2917 9.24344 11.0725 9.56795C11.0182 9.64828 10.8717 9.76026 10.5785 9.98422L10.5043 10.0409C10.3201 10.1816 10.228 10.2519 10.1566 10.3301C9.92337 10.5854 9.81326 10.9299 9.8552 11.2732C9.86803 11.3783 9.90225 11.489 9.97068 11.7104L10.0096 11.8365C10.1068 12.1509 10.1554 12.3081 10.1571 12.3914C10.1657 12.8138 9.74207 13.1094 9.34858 12.9553C9.27104 12.925 9.14028 12.8251 8.87876 12.6253V12.6253C8.72718 12.5095 8.65138 12.4516 8.57649 12.4099C8.21807 12.2104 7.78197 12.2104 7.42355 12.4099C7.34866 12.4516 7.27286 12.5095 7.12128 12.6253V12.6253C6.85976 12.8251 6.729 12.925 6.65146 12.9553C6.25797 13.1094 5.8343 12.8138 5.84296 12.3914C5.84467 12.3081 5.89325 12.1509 5.99042 11.8365L6.02936 11.7104C6.09779 11.489 6.13201 11.3783 6.14484 11.2732C6.18678 10.9299 6.07667 10.5854 5.84339 10.3301C5.772 10.2519 5.67991 10.1816 5.49573 10.0409L5.42156 9.98423C5.12838 9.76026 4.98179 9.64828 4.92753 9.56795C4.70829 9.24344 4.85853 8.7993 5.22974 8.67451C5.32163 8.64362 5.50991 8.64362 5.88648 8.64362V8.64362C6.09134 8.64362 6.19377 8.64362 6.28366 8.62975C6.6678 8.57044 6.99844 8.32654 7.16852 7.97704C7.20832 7.89525 7.23801 7.79918 7.29738 7.60704V7.60704Z" stroke="#949495" stroke-width="1.33333" stroke-linecap="round" stroke-linejoin="round"/>
</g>
<defs>
<clipPath id="clip0_96_27143">
<rect width="16" height="16" fill="white"/>
</clipPath>
</defs>
</svg>
