<svg width="16" height="16" viewBox="0 0 16 16" fill="none" xmlns="http://www.w3.org/2000/svg">
<g clip-path="url(#clip0_96_27146)">
<path d="M14.6666 5.7777L14.6666 1.33326M14.6666 1.33326H10.2222M14.6666 1.33326L7.99998 7.99992M6.5185 1.33325H4.88887C3.64431 1.33325 3.02203 1.33325 2.54667 1.57546C2.12853 1.78851 1.78857 2.12847 1.57552 2.54661C1.33331 3.02197 1.33331 3.64425 1.33331 4.88881V11.111C1.33331 12.3556 1.33331 12.9779 1.57552 13.4532C1.78857 13.8714 2.12853 14.2113 2.54667 14.4244C3.02203 14.6666 3.64431 14.6666 4.88887 14.6666H11.1111C12.3557 14.6666 12.9779 14.6666 13.4533 14.4244C13.8714 14.2113 14.2114 13.8714 14.4244 13.4532C14.6666 12.9779 14.6666 12.3556 14.6666 11.111V9.4814" stroke="#949495" stroke-width="1.33" stroke-linecap="round" stroke-linejoin="round"/>
</g>
<defs>
<clipPath id="clip0_96_27146">
<rect width="16" height="16" fill="white"/>
</clipPath>
</defs>
</svg>
