<svg width="16" height="16" viewBox="0 0 16 16" fill="none" xmlns="http://www.w3.org/2000/svg">
<path fill-rule="evenodd" clip-rule="evenodd" d="M9.33333 8.00008C9.33333 8.73646 8.73638 9.33341 8 9.33341C7.26362 9.33341 6.66667 8.73646 6.66667 8.00008C6.66667 7.2637 7.26362 6.66675 8 6.66675C8.73638 6.66675 9.33333 7.2637 9.33333 8.00008ZM3.99998 8.00016C3.99998 8.73654 3.40303 9.3335 2.66665 9.3335C1.93027 9.3335 1.33331 8.73654 1.33331 8.00016C1.33331 7.26378 1.93027 6.66683 2.66665 6.66683C3.40303 6.66683 3.99998 7.26378 3.99998 8.00016ZM13.3333 9.33341C14.0697 9.33341 14.6667 8.73646 14.6667 8.00008C14.6667 7.2637 14.0697 6.66675 13.3333 6.66675C12.597 6.66675 12 7.2637 12 8.00008C12 8.73646 12.597 9.33341 13.3333 9.33341Z" fill="#4D4D4E"/>
</svg>
